<svg width="1024" height="1024" viewBox="0 0 1024 1024" fill="none" xmlns="http://www.w3.org/2000/svg">
  <rect width="1024" height="1024" rx="230" fill="#FAF6EE"/>
  <circle cx="512" cy="512" r="284" fill="#FFFDF8"/>
  <circle cx="512" cy="512" r="284" stroke="#E8DAC9" stroke-width="8"/>
  <path d="M327 526C377 460 444 426 512 426C580 426 647 460 697 526" stroke="#7D9BC2" stroke-width="26" stroke-linecap="round"/>
  <path d="M383 586C421 543 466 522 512 522C558 522 603 543 641 586" stroke="#D7A1AB" stroke-width="22" stroke-linecap="round"/>
  <path d="M447 648C467 628 489 618 512 618C535 618 557 628 577 648" stroke="#7D9BC2" stroke-width="18" stroke-linecap="round"/>
  <circle cx="512" cy="370" r="32" fill="#D7A1AB"/>
  <path d="M512 252V310" stroke="#D7A1AB" stroke-width="16" stroke-linecap="round"/>
  <path d="M404 288L432 337" stroke="#E8C4CA" stroke-width="14" stroke-linecap="round"/>
  <path d="M620 288L592 337" stroke="#E8C4CA" stroke-width="14" stroke-linecap="round"/>
</svg>
