<svg width="1024" height="1024" viewBox="0 0 1024 1024" fill="none" xmlns="http://www.w3.org/2000/svg">
  <rect width="1024" height="1024" rx="230" fill="#F6F1E8"/>
  <path d="M264 364C264 334.177 288.177 310 318 310H706C735.823 310 760 334.177 760 364V660C760 689.823 735.823 714 706 714H318C288.177 714 264 689.823 264 660V364Z" fill="#FFFCF6"/>
  <path d="M264 364C264 334.177 288.177 310 318 310H706C735.823 310 760 334.177 760 364V660C760 689.823 735.823 714 706 714H318C288.177 714 264 689.823 264 660V364Z" stroke="#E5D7C5" stroke-width="6"/>
  <path d="M333 439C384 439 392 478 442 478C493 478 500 439 551 439C601 439 610 478 660 478" stroke="#6E8DB5" stroke-width="18" stroke-linecap="round"/>
  <path d="M333 562H575" stroke="#D9C9B7" stroke-width="14" stroke-linecap="round"/>
  <path d="M333 612H512" stroke="#E2D4C3" stroke-width="12" stroke-linecap="round"/>
  <path d="M686 310C727 310 760 343.177 760 384V433C736 405 707 391 674 391H606C572 391 545 364 545 330V310H686Z" fill="#F0E6D7"/>
  <path d="M545 310V330C545 364 572 391 606 391H674C707 391 736 405 760 433" stroke="#E5D7C5" stroke-width="6" stroke-linecap="round"/>
  <path d="M278 682C311 705 357 714 410 714H706C735.823 714 760 689.823 760 660V644C725 663 681 672 628 672H342C316 672 294 675 278 682Z" fill="#F4EBDD" fill-opacity="0.58"/>
</svg>
